<?xml version="1.0" standalone="no"?><!DOCTYPE svg PUBLIC "-//W3C//DTD SVG 1.1//EN" "http://www.w3.org/Graphics/SVG/1.1/DTD/svg11.dtd"><svg t="1618311022280" class="icon" viewBox="0 0 1024 1024" version="1.1" xmlns="http://www.w3.org/2000/svg" p-id="2128" width="32" height="32" xmlns:xlink="http://www.w3.org/1999/xlink"><defs><style type="text/css"></style></defs><path d="M942.72 1023.13H77.26c-22.4 0-44.8-11.367-59.34-28.416l-1.126-1.152c-14.541-20.48-19.021-44.365-13.44-65.972 45.926-236.62 238.49-416.358 467.993-435.712 5.632-1.126 10.087-2.252 14.567-2.252h42.547l-5.607 56.883H500.48c-8.96 0-13.44 0-20.173 2.278h-3.328C269.824 563.558 96.307 725.094 55.987 940.083c-1.126 5.709-1.126 13.67 4.48 19.354l1.127 2.278c3.328 4.531 8.96 6.81 15.667 6.81h866.56c6.733 0 12.313-2.279 15.693-6.81 5.58-6.835 6.707-13.67 5.58-21.632-25.753-141.056-109.721-260.48-228.403-328.73l-1.1-1.151c-8.96-5.684-20.173-11.367-30.234-17.05-3.354-2.304-6.733-3.43-10.087-5.683l-15.667-6.835 22.4-51.2 15.667 6.835c11.188 4.557 22.4 11.366 32.461 15.923l13.44 6.835c134.349 77.338 227.277 211.559 257.51 368.563 5.607 22.733 0 46.618-16.793 67.098a82.893 82.893 0 0 1-61.568 28.442z" fill="#d4237a" p-id="2129"></path><path d="M516.147 529.434c-141.056 0-257.536-118.298-257.536-261.632S375.117 6.17 516.173 6.17s257.51 118.297 257.51 261.632-117.555 261.632-257.536 261.632z m0-482.304c-120.909 0-217.216 98.97-217.216 220.672 0 121.728 97.408 220.672 217.216 220.672s217.19-98.944 217.19-220.672c0-121.703-97.407-220.672-217.19-220.672z" fill="#d4237a" p-id="2130"></path><path d="M516.147 535.117c-145.561 0-263.117-119.424-263.117-267.315C253.03 119.936 370.586 0.512 516.147 0.512c145.536 0 263.091 119.45 263.091 267.315 0 147.891-118.656 267.315-263.09 267.315z m0-523.264c-138.829 0-251.904 114.893-251.904 255.949S377.318 523.75 516.147 523.75s251.904-114.892 251.904-255.948-113.075-255.95-251.904-255.95z m0 482.304c-123.136 0-222.797-101.223-222.797-226.355s99.61-226.33 222.797-226.33c123.136 0 222.797 101.222 222.797 226.355S638.182 494.208 516.147 494.208z m0-441.344c-116.454 0-211.61 96.691-211.61 214.989 0 118.323 95.156 215.014 211.61 215.014 116.429 0 211.61-96.691 211.61-215.014 0-118.272-95.181-214.99-211.61-214.99zM172.416 834.304a20.531 20.531 0 0 1-7.834-2.278c-7.833-4.557-11.187-14.797-6.707-22.759 98.509-194.509 312.371-230.912 321.331-232.038 8.96-1.152 17.92 4.531 19.021 13.645 1.127 9.088-4.48 18.176-13.44 19.328-2.227 0-206.003 35.276-296.704 213.862-3.328 6.835-8.96 10.24-15.667 10.24z m-38.067 98.97a17.357 17.357 0 0 1-16.794-17.076c0-32.972 21.274-68.25 24.653-71.68 4.454-7.936 15.667-10.24 23.5-5.657 7.834 4.531 10.087 15.923 5.607 23.885-5.606 7.936-19.046 34.124-19.046 53.452-1.127 9.114-7.834 17.076-17.92 17.076z" fill="#d4237a" p-id="2131"></path></svg>